<?xml version="1.0" encoding="UTF-8" standalone="no"?>
<svg
   xmlns:dc="http://purl.org/dc/elements/1.1/"
   xmlns:cc="http://creativecommons.org/ns#"
   xmlns:rdf="http://www.w3.org/1999/02/22-rdf-syntax-ns#"
   xmlns:svg="http://www.w3.org/2000/svg"
   xmlns="http://www.w3.org/2000/svg"
   viewBox="0 0 58.386665 65"
   height="65"
   width="58.386665"
   xml:space="preserve"
   id="svg2"
   version="1.1"><metadata
     id="metadata8"><rdf:RDF><cc:Work
         rdf:about=""><dc:format>image/svg+xml</dc:format><dc:type
           rdf:resource="http://purl.org/dc/dcmitype/StillImage" /></cc:Work></rdf:RDF></metadata><defs
     id="defs6"><clipPath
       id="clipPath20"
       clipPathUnits="userSpaceOnUse"><path
         id="path18"
         d="M 0,487.531 V 0 h 437.93 v 487.531 z" /></clipPath></defs><g
     transform="matrix(1.3333333,0,0,-1.3333333,0,65)"
     id="g10"><g
       transform="scale(0.1)"
       id="g12"><g
         id="g14"><g
           clip-path="url(#clipPath20)"
           id="g16"><path
             id="path22"
             style="fill:#127bca;fill-opacity:1;fill-rule:nonzero;stroke:none"
             d="m 153.824,135.043 c 17.375,-1.504 26.078,-2.277 72.793,-3.781 68.434,-3.028 97.785,-7.559 128.188,-20.418 17.898,-7.883 31.504,-19.426 40.144,-33.4573 V 390.695 c -5.484,1.567 -11.25,2.145 -18.406,2.145 -17.395,0 -28.262,-3.774 -40.188,-14.367 7.583,-19.649 10.852,-35.528 10.852,-61.219 0,-95.27 -56.504,-145.152 -162.965,-145.152 -13.043,0 -20.637,0.734 -38.015,2.265 -15.219,-5.32 -23.899,-12.859 -23.899,-21.933 0,-9.825 10.86,-15.86 31.496,-17.391 v 0" /><path
             id="path24"
             style="fill:#231f20;fill-opacity:1;fill-rule:nonzero;stroke:none"
             d="m 183.363,234.074 c 41.285,0 60.848,19.668 60.848,60.5 v 41.571 c 0,41.582 -19.563,61.242 -60.848,61.242 -41.273,0 -60.824,-19.66 -60.824,-61.242 v -41.571 c 0,-40.832 19.551,-60.5 60.824,-60.5 v 0" /><path
             id="path26"
             style="fill:#231f20;fill-opacity:1;fill-rule:nonzero;stroke:none"
             d="M 223.699,32.582 C 220.941,65.6289 139.859,61.2031 79.2461,77.6484 37.3516,85.168 25.8438,101.02 25.8438,123.703 c 0,28.731 27.5351,48.625 83.6602,58.223 -63.0118,23.429 -90.172,63.496 -90.172,133.808 0,93.743 57.5743,143.645 166.219,143.645 60.836,0 97.769,-13.621 131.453,-47.625 10.059,26.226 28.562,55.519 61.387,59.902 -9.067,9.832 -21.078,15.875 -34.282,15.875 H 51.0859 C 22.8672,487.531 0,460.238 0,426.578 V 0.00390625 c 175.359,0 222.164,-0.48046925 223.699,32.57809375 v 0" /><path
             id="path28"
             style="fill:#231f20;fill-opacity:1;fill-rule:nonzero;stroke:none"
             d="m 422.371,22.6094 h -4.273 v -5.4571 h 4.273 c 2.141,0 3.41,1.043 3.41,2.7227 0,1.7773 -1.269,2.7344 -3.41,2.7344 z m 2.774,-7.7813 4.64,-6.50388 h -3.906 l -4.191,5.95708 h -3.59 V 8.32422 h -3.274 V 25.5586 h 7.688 c 4.004,0 6.636,-2.0391 6.636,-5.4961 0,-2.8242 -1.636,-4.5508 -4.003,-5.2344 z m -3.629,16.4649 c -8.418,0 -14.786,-6.6914 -14.786,-14.875 0,-8.18362 6.317,-14.78519 14.688,-14.78519 8.418,0 14.781,6.69141 14.781,14.87499 0,8.1914 -6.316,14.7852 -14.683,14.7852 z M 421.418,0.00390625 C 412.188,0.00390625 405,7.41406 405,16.418 c 0,9.0156 7.273,16.5156 16.516,16.5156 9.226,0 16.414,-7.4141 16.414,-16.4258 0,-8.99608 -7.278,-16.50389375 -16.512,-16.50389375 v 0" /></g></g></g></g></svg>